<?xml version="1.0" encoding="UTF-8" standalone="no"?>
<!-- Created with Inkscape (http://www.inkscape.org/) -->

<svg
   width="72.60067mm"
   height="67.115738mm"
   viewBox="0 0 72.60067 67.115738"
   version="1.1"
   id="svg1"
   xml:space="preserve"
   xmlns="http://www.w3.org/2000/svg"
   xmlns:svg="http://www.w3.org/2000/svg"><defs
     id="defs1" /><g
     id="layer3"
     style="display:inline"
     transform="translate(-301.94852,-209.50647)"><path
       style="display:inline;fill:#000000;stroke-width:1.68273"
       d="m 344.7642,276.15891 c 2.26803,-0.75936 4.30911,-2.45278 5.30191,-4.39879 1.01391,-1.98745 1.11805,-3.1439 0.35206,-3.90988 -0.88056,-0.88056 -1.5537,-0.63057 -3.89047,1.44481 -3.27728,2.91069 -7.23898,3.65505 -12.29162,2.30949 -2.8528,-0.75974 -4.02482,-1.38196 -6.10255,-3.23977 -1.75408,-1.56842 -2.03775,-1.6847 -2.81382,-1.1533 -1.02228,0.7 -1.08531,2.03972 -0.18361,3.90237 1.08634,2.24407 3.5131,3.98302 6.79001,4.86554 2.8391,0.76461 10.75977,0.87537 12.83809,0.17953 z m -24.58191,-19.50862 c 3.40436,-1.34188 5.49292,-2.81341 6.92393,-4.87835 1.16878,-1.68655 1.30663,-2.28311 1.4923,-6.45789 0.20127,-4.52519 0.18079,-4.64433 -1.26419,-7.35537 -1.86437,-3.49794 -3.00533,-4.10768 -8.43787,-4.50929 -7.00768,-0.51806 -15.49521,0.87365 -16.47325,2.70115 -0.71393,1.33398 -0.59392,10.97648 0.16794,13.48794 2.09333,6.90132 9.93831,10.0283 17.5912,7.01181 z m -6.52958,-0.96148 c -4.56022,-0.84194 -8.04308,-4.92503 -8.44219,-9.8971 -0.30131,-3.75356 0.16507,-6.81167 1.09321,-7.16782 0.39666,-0.15211 2.8793,-0.40022 5.51701,-0.55114 l 4.79583,-0.27439 -1.08617,2.14543 c -0.59738,1.18 -1.08504,2.66245 -1.08368,3.29435 0.0118,5.23474 5.08741,10.07117 9.01448,8.58888 l 1.36802,-0.51638 -1.26987,1.32547 c -2.4313,2.53773 -6.27713,3.72281 -9.90664,3.0527 z m 8.95917,-16.66364 c -0.39368,-1.02587 0.11678,-1.26674 1.15039,-0.54279 0.93727,0.65648 0.80712,1.22984 -0.27916,1.22984 -0.33417,0 -0.72623,-0.30917 -0.87123,-0.68705 z m 39.98042,17.85348 c 6.24935,-1.32458 8.5855,-3.83864 9.14617,-9.84266 0.21173,-2.2675 0.42319,-2.87156 1.00517,-2.87156 1.02758,0 1.80555,-0.88667 1.80555,-2.05784 0,-1.50921 -3.29077,-4.05578 -6.53649,-5.05827 -6.36788,-1.96684 -17.83101,-2.36463 -20.97527,-0.72788 -1.85433,0.96528 -2.65457,2.56838 -1.97281,3.95211 0.27041,0.54887 0.56356,2.81264 0.65143,5.03061 0.23506,5.93317 2.05694,9.1352 6.34944,11.15945 2.62164,1.2363 6.02267,1.37072 10.52681,0.41604 z m -7.8593,-1.07834 c -2.04017,-0.92683 -4.48829,-3.52104 -5.41439,-5.73752 -0.94285,-2.25657 -1.25039,-6.79822 -0.59485,-8.78454 l 0.55826,-1.69153 4.02016,0.28535 c 2.21109,0.157 4.83007,0.28536 5.81998,0.28536 h 1.79983 l -1.45815,1.50443 c -2.63436,2.71797 -2.29982,6.24946 0.84251,8.89355 1.54442,1.29954 4.54947,2.25794 5.96042,1.90095 2.09002,-0.52882 -2.37698,2.79642 -4.67231,3.47806 -3.02548,0.89848 -4.65878,0.86655 -6.86146,-0.13411 z m 0.44904,-30.56608 c 7.60174,-1.75016 8.32735,-1.78977 9.8262,-0.53642 1.91136,1.59827 3.20319,1.89047 4.23395,0.95764 0.78688,-0.71212 0.80355,-0.87003 0.1907,-1.80535 -0.36937,-0.56373 -0.67159,-1.40168 -0.67159,-1.86209 0,-1.19943 -1.3703,-2.27434 -3.85114,-3.02097 -2.30876,-0.69483 -2.48938,-0.67619 -9.34345,0.96518 -2.48202,0.59437 -4.94542,1.08068 -5.4742,1.08068 -2.05855,0 -4.32111,3.70542 -3.13513,5.13444 0.63024,0.75938 1.26742,0.68864 8.22466,-0.91311 z m -43.87031,-4.61445 c 2.77972,-2.82321 7.65637,-5.83999 9.44039,-5.83999 0.60626,0 1.88927,0.59548 2.85117,1.32328 1.98217,1.49978 2.93513,1.65649 3.9432,0.64842 1.14266,-1.14265 0.82018,-2.56592 -0.96996,-4.28099 -3.68446,-3.53 -7.06262,-3.88054 -11.49702,-1.19302 -5.52527,3.34868 -8.17307,6.6743 -8.19426,10.29195 -0.0152,2.50454 1.30408,2.22162 4.42648,-0.94965 z"
       id="path6" /></g></svg>
