<?xml version="1.0" encoding="UTF-8" standalone="no"?>
<!-- Created with Inkscape (http://www.inkscape.org/) -->

<svg
   width="67.156334mm"
   height="59.599892mm"
   viewBox="0 0 67.156334 59.599892"
   version="1.1"
   id="svg1"
   xml:space="preserve"
   xmlns="http://www.w3.org/2000/svg"
   xmlns:svg="http://www.w3.org/2000/svg"><defs
     id="defs1" /><g
     id="layer3"
     style="display:inline"
     transform="translate(-299.99868,56.519144)"><path
       style="display:inline;fill:#000000;stroke-width:1.70513"
       d="m 338.41535,2.2153276 c 4.96653,-1.50566003 10.49336,-5.38863 13.17241,-9.2545 1.19037,-1.71771 1.24157,-1.93602 0.5454,-2.32563 -0.42256,-0.23648 -0.76831,-0.9274196 -0.76831,-1.5354096 0,-2.06548 -1.80238,-1.38087 -4.83771,1.8375596 -3.06192,3.2466 -6.70356,5.27417 -10.90322,6.07062 -7.32518,1.38918 -12.08579,-0.51533 -15.76467,-6.30674 -0.8669,-1.3647196 -1.79667,-2.6304696 -2.06615,-2.8127696 -1.47492,-0.99777 -3.42516,0.3037 -3.41814,2.2810596 0.007,1.68983 3.08564,6.36188 5.4948,8.33601 5.21767,4.27549 12.12317,5.65683 18.54559,3.7098 z m -23.0847,-17.5636296 c 4.50884,-1.88416 7.14256,-6.9299 7.15533,-13.70829 0.0171,-8.62412 -4.4668,-14.37775 -10.47714,-13.44655 -7.26192,1.12513 -11.11362,6.62059 -10.60686,15.13353 0.2436,4.09214 0.66959,5.43544 2.67624,8.43896 2.32325,3.47744 7.53385,5.13629 11.25243,3.58235 z m -0.21334,-15.52835 c -1.62893,-1.79995 -0.17306,-4.58876 2.39553,-4.58876 2.22678,0 3.0776,2.8032 1.36932,4.5115 -1.12598,1.12597 -2.78497,1.16002 -3.76485,0.0772 z m 45.3978,15.09436 c 3.29472,-1.40386 5.34243,-5.37968 5.64638,-10.96304 0.28166,-5.17373 -0.94096,-9.11688 -3.8195,-12.31849 -2.70447,-3.00804 -3.4851,-3.2864 -7.50924,-2.6777 -4.11653,0.62267 -4.97082,1.1907 -6.56909,4.36792 -1.49084,2.96367 -1.9797,5.36096 -1.95607,9.5922 0.0215,3.85237 0.66237,6.1502 2.4693,8.85392 1.17681,1.76087 1.89775,2.3341 3.71583,2.95451 2.75556,0.94033 6.07773,1.01929 8.02239,0.19068 z m -3.07211,-16.53874 c -1.85888,-2.05403 1.32828,-5.24119 3.38231,-3.38231 1.13826,1.0301 1.17763,2.56818 0.0909,3.55163 -1.11232,1.00664 -2.46887,0.94052 -3.47324,-0.16932 z m -52.64015,-14.71644 c 3.46192,-2.2979 6.93513,-3.30535 10.33292,-2.99725 3.19289,0.28951 3.53277,-0.0171 2.84656,-2.56511 -0.71298,-2.64783 -2.02213,-3.33766 -5.81866,-3.06603 -2.46879,0.17665 -3.7378,0.57171 -6.35088,1.97715 -4.94799,2.66128 -6.6856,5.04539 -5.41185,7.42541 0.67027,1.25241 1.59332,1.09007 4.40191,-0.77417 z m 47.97487,-2.18797 c 2.37045,-2.14157 5.28042,-2.21608 8.80745,-0.22557 3.6405,2.05456 5.56988,1.69514 5.56988,-1.03764 0,-2.08915 -2.39886,-4.11957 -6.24868,-5.28891 -3.98572,-1.21063 -6.25342,-0.97508 -9.37014,0.97334 -2.7781,1.7367 -3.75783,2.95771 -3.77053,4.69906 -0.021,2.87747 2.34172,3.29217 5.01202,0.87972 z"
       id="path3" /></g></svg>
