<?xml version="1.0" encoding="UTF-8" standalone="no"?>
<!-- Created with Inkscape (http://www.inkscape.org/) -->

<svg
   width="119.47837mm"
   height="85.485573mm"
   viewBox="0 0 119.47837 85.485573"
   version="1.1"
   id="svg1"
   xml:space="preserve"
   xmlns="http://www.w3.org/2000/svg"
   xmlns:svg="http://www.w3.org/2000/svg"><defs
     id="defs1" /><g
     id="layer3"
     style="display:inline"
     transform="translate(-247.86653,-119.04858)"><path
       style="display:inline;fill:#000000;stroke-width:1.84011"
       d="m 325.21681,204.53414 c -174.03813,-173.274772 0,0 0,0 z m 34.92504,-11.86584 c 1.79355,-0.92749 4.85549,-4.36052 5.70717,-6.39884 1.17772,-2.81871 0.83673,-5.2243 -1.54545,-10.90283 -1.22566,-2.92162 -2.5146,-5.54951 -2.86433,-5.83975 -1.21066,-1.00477 -1.18104,0.73032 0.0629,3.68222 2.61164,6.19757 3.15024,8.09167 2.83369,9.96536 -0.58626,3.47001 -4.37207,7.76221 -6.84087,7.7559 -1.38455,-0.004 -3.43281,-1.94558 -4.05367,-3.84342 -1.54368,-4.71871 -0.0889,-9.8658 4.50633,-15.94399 1.43389,-1.89659 2.1532,-3.27884 1.96351,-3.77317 -0.16469,-0.42904 -0.45681,-0.7801 -0.64927,-0.7801 -1.28375,0 -7.01559,9.21658 -8.14239,13.09264 -1.47579,5.07652 0.1185,10.58131 3.65899,12.63436 2.09252,1.21336 3.51645,1.30673 5.3634,0.35162 z m -43.41822,-6.74592 c 0.58777,-0.32677 1.89007,-1.55373 2.89401,-2.72662 2.35458,-2.75079 4.95799,-3.92629 8.69572,-3.92629 3.62288,0 6.02072,1.04752 9.25038,4.04108 2.65412,2.46009 3.3619,2.67971 4.70856,1.46099 2.47699,-2.24164 -0.89495,-7.06717 -6.87723,-9.8419 -2.21934,-1.02938 -3.4366,-1.25481 -6.83826,-1.26638 -3.63021,-0.0129 -4.52729,0.17021 -7.30617,1.48721 -3.73118,1.76825 -6.12451,4.0053 -7.42114,6.93654 l -0.93758,2.11956 1.10125,1.17222 c 1.25767,1.33874 1.28902,1.34497 2.73046,0.54359 z m 39.84713,-20.08587 c 7.50138,-1.94711 10.51816,-10.25254 7.04148,-19.38574 -2.06506,-5.42493 -6.24221,-8.09905 -12.65121,-8.09905 -2.73536,0 -3.57018,0.21827 -5.489,1.43517 -4.20713,2.66807 -7.15001,8.05813 -7.25497,13.28791 -0.12476,6.21187 4.18269,11.45945 10.65865,12.98515 2.77536,0.65389 4.50901,0.60354 7.69505,-0.22344 z m -4.35789,-15.83747 c -1.462,-1.73748 -1.48429,-1.89247 -0.58252,-4.05071 1.33176,-3.18735 5.74634,-3.10347 7.08763,0.13469 1.76214,4.2542 -3.53654,7.44401 -6.50511,3.91606 z m -40.88806,14.01212 c 3.81785,-1.97429 6.91004,-7.00869 7.36127,-11.98487 0.46259,-5.10155 -1.59172,-9.19203 -5.76133,-11.4718 -2.2075,-1.20694 -3.16757,-1.43386 -6.03329,-1.42602 -5.49307,0.0147 -9.77197,2.41451 -12.07209,6.7696 -1.52853,2.89414 -1.3818,8.931 0.29693,12.21665 1.59751,3.12671 4.07094,5.45057 6.71934,6.31299 2.60191,0.84727 7.45736,0.63413 9.48917,-0.41655 z m -6.31513,-13.52324 c -1.81221,-1.42547 -1.81221,-4.34618 0,-5.77166 1.51565,-1.19222 2.64932,-1.26658 4.5247,-0.29677 2.48808,1.28664 2.7094,3.94478 0.48433,5.81706 -1.81024,1.52322 -3.29728,1.59783 -5.00903,0.25137 z m -1.3546,-18.24395 c 5.66131,-1.79486 8.841,-3.55564 10.9526,-6.06514 1.15131,-1.36825 1.31623,-1.90093 1.04167,-3.36445 -0.43,-2.2921 -0.57536,-2.47653 -1.95174,-2.47653 -0.72034,0 -1.9168,0.7547 -3.11481,1.96474 -3.18147,3.21343 -9.31089,5.45122 -17.08003,6.23577 l -3.1646,0.31957 -0.15026,2.08065 c -0.14027,1.94221 -0.0431,2.12867 1.46058,2.80218 2.17607,0.97471 5.5297,0.55662 12.0066,-1.49679 z m 63.37906,0.72373 c 0.69583,-1.3002 0.14831,-3.75871 -0.90112,-4.04678 -0.45,-0.12347 -1.91362,-0.35925 -3.25248,-0.52386 -4.05468,-0.49851 -7.18582,-1.31783 -9.53762,-2.4957 -2.33204,-1.16797 -5.00311,-3.82435 -5.53703,-5.50661 -0.67173,-2.11644 -3.76576,-1.63455 -4.66335,0.72629 -0.67333,1.77095 0.40981,3.91486 3.37137,6.67311 4.3032,4.00777 9.79993,5.93478 17.44493,6.11572 2.10046,0.0497 2.63154,-0.11298 3.0753,-0.94217 z"
       id="path5" /></g></svg>
