<?xml version="1.0" encoding="UTF-8" standalone="no"?>
<!-- Created with Inkscape (http://www.inkscape.org/) -->

<svg
   width="89.041771mm"
   height="74.321922mm"
   viewBox="0 0 89.041771 74.321922"
   version="1.1"
   id="svg1"
   xml:space="preserve"
   xmlns="http://www.w3.org/2000/svg"
   xmlns:svg="http://www.w3.org/2000/svg"><defs
     id="defs1" /><g
     id="layer3"
     style="display:inline"
     transform="translate(-265.80676,-283.74485)"><path
       style="display:inline;fill:#000000;stroke-width:1.96114"
       d="m 320.92327,356.32541 c 1.99771,-0.79075 5.25245,-2.60541 7.23276,-4.03258 2.99591,-2.15908 3.7572,-2.49704 4.53319,-2.01242 0.51293,0.32033 1.29336,0.58242 1.73427,0.58242 2.38721,0 0.69585,-4.08138 -3.31436,-7.99785 -2.15325,-2.1029 -2.74428,-2.43865 -3.3736,-1.91634 -0.66873,0.55498 -0.65589,0.82589 0.10394,2.19255 l 0.86699,1.55932 -2.07552,1.7632 c -6.57708,5.58729 -16.39582,7.01255 -23.51294,3.41308 -1.98918,-1.00603 -3.66575,-1.53353 -4.26725,-1.34262 -1.01903,0.32343 -3.0934,2.63214 -3.0934,3.44286 0,0.76611 5.38091,3.94876 8.61792,5.09724 4.42057,1.5684 11.50354,1.24787 16.54794,-0.74886 z m -30.03444,-21.69939 c 4.0158,-2.03101 7.46085,-5.41948 9.07816,-8.92905 1.64088,-3.56072 1.06207,-13.7277 -0.9053,-15.90161 -0.74343,-0.82147 -1.87142,-0.92715 -9.98112,-0.93503 -5.02863,-0.004 -11.15888,-0.16101 -13.62279,-0.34711 -5.67026,-0.42803 -8.00095,-0.006 -9.08091,1.64149 -0.76923,1.174 -0.76572,1.37727 0.0451,2.61463 0.76457,1.16686 0.79738,1.68226 0.25193,3.95598 -1.18378,4.93461 0.62825,12.47828 3.818,15.89463 2.54871,2.72979 7.59732,4.29004 13.07183,4.03984 2.93737,-0.13433 4.33864,-0.52331 7.32519,-2.03377 z m -12.65942,-0.14826 c -2.9058,-1.44803 -4.71255,-3.29979 -6.48314,-6.64472 -1.4333,-2.70767 -1.56517,-8.8993 -0.25269,-11.86505 l 0.86111,-1.9458 h 3.84567 c 2.11514,0 4.92574,0.14807 6.2458,0.32896 l 2.4001,0.32898 -1.52376,1.73547 c -2.61984,2.98383 -2.71929,6.98231 -0.26589,10.68966 1.59428,2.40912 4.80641,4.10315 8.54972,4.509 l 2.85387,0.30941 -1.81609,1.06582 c -5.44459,3.19528 -10.03755,3.66948 -14.4147,1.48827 z m 15.23008,-14.52547 c -1.02595,-1.02597 -1.0277,-1.76388 -0.008,-3.22024 1.45681,-2.07988 5.41885,-0.96023 5.41885,1.53137 0,2.12109 -3.79466,3.30544 -5.41122,1.68887 z m 51.51326,14.35638 c 3.74889,-1.50337 6.08087,-3.37551 7.75786,-6.2281 1.22698,-2.08712 1.40066,-2.9319 1.39672,-6.79402 -0.004,-3.28108 -0.24716,-4.85761 -0.95219,-6.15649 -0.68136,-1.25529 -0.78948,-1.90425 -0.38468,-2.30904 0.82276,-0.82276 0.68754,-3.23841 -0.22363,-3.9946 -0.5274,-0.43771 -1.68175,-0.55332 -3.50247,-0.35081 -3.49348,0.38858 -18.03938,-0.37779 -23.67092,-1.24715 l -4.35086,-0.67164 -1.22714,1.42664 c -1.52225,1.76971 -1.54563,2.77897 -0.10002,4.31778 1.04405,1.11133 1.08229,1.39405 0.51888,3.83492 -0.79954,3.46379 -0.76737,5.49453 0.13453,8.49115 1.46701,4.87453 4.1947,7.72228 9.57913,10.00077 2.52551,1.0687 3.52624,1.20237 7.57963,1.01239 3.13745,-0.14708 5.58067,-0.5841 7.4452,-1.3318 z m -14.66129,-0.81584 c -6.3714,-2.61935 -9.30973,-6.59249 -9.35978,-12.65611 -0.0176,-2.17101 0.32685,-4.36264 0.93376,-5.93582 0.86927,-2.25329 1.09468,-2.4688 2.33497,-2.23246 0.75505,0.14395 3.12405,0.40731 5.26443,0.58544 5.89945,0.49097 5.94677,0.51731 4.47452,2.48958 -3.76853,5.04845 -2.27609,10.7652 3.63552,13.92565 3.76654,2.01365 5.95204,2.25429 8.5299,0.93917 2.7852,-1.4209 2.15511,-0.39717 -0.83354,1.3543 -2.73671,1.60382 -6.96305,2.80501 -9.83924,2.79648 -1.14153,-0.004 -3.45479,-0.57318 -5.14054,-1.26623 z m 15.17103,-13.37376 c -1.47091,-1.18516 -1.53416,-2.4466 -0.19004,-3.79072 0.69764,-0.69762 1.70982,-1.2684 2.24935,-1.2684 2.12818,0 3.58703,3.57377 2.07576,5.08506 -0.8122,0.81219 -3.11275,0.79775 -4.13505,-0.0259 z m -49.52116,-19.88984 c 0.85894,-2.23836 -0.111,-4.20154 -4.30411,-8.71089 -5.2415,-5.63693 -13.32136,-5.96652 -18.83313,-0.76826 -2.13682,2.01527 -2.89148,4.12219 -2.07733,5.79965 0.30097,0.62013 0.63058,1.4431 0.73246,1.82882 0.1259,0.47704 0.92622,0.0782 2.50262,-1.24697 1.27459,-1.07153 3.56121,-2.52155 5.0814,-3.22226 2.54089,-1.17119 2.95228,-1.2213 5.09647,-0.62098 1.78888,0.50088 2.89816,1.31512 4.75983,3.49392 3.13268,3.66634 6.35276,5.24257 7.04179,3.44697 z m 58.32616,-1.87743 c 1.54548,-1.54548 -0.0941,-4.78898 -5.01782,-9.92664 -3.80211,-3.96734 -5.713,-4.77005 -11.12367,-4.67278 -7.33692,0.13198 -11.96687,2.97751 -11.01501,6.76996 0.37322,1.48707 1.53331,1.51287 5.93851,0.13218 6.3805,-1.99993 10.09114,-1.23772 12.97699,2.66559 3.88874,5.25981 6.44945,6.82332 8.241,5.03177 z"
       id="path7" /></g></svg>
