<?xml version="1.0" encoding="UTF-8" standalone="no"?>
<!-- Created with Inkscape (http://www.inkscape.org/) -->

<svg
   width="78.323769mm"
   height="86.568314mm"
   viewBox="0 0 78.323769 86.568314"
   version="1.1"
   id="svg1"
   xml:space="preserve"
   xmlns="http://www.w3.org/2000/svg"
   xmlns:svg="http://www.w3.org/2000/svg"><defs
     id="defs1" /><g
     id="layer3"
     style="display:inline"
     transform="translate(-296.6808,-17.466569)"><path
       style="display:inline;fill:#000000;fill-opacity:1;stroke:#000000;stroke-width:1.77548;stroke-opacity:0.326203"
       d="m 337.98197,102.20282 c 2.62183,-1.32211 4.80753,-4.482905 6.14512,-8.886635 1.39911,-4.60628 1.16268,-12.43222 -0.45861,-15.18009 -3.86754,-6.55501 -13.71944,-5.74454 -17.0276,1.40074 -1.02404,2.21182 -1.21302,9.00506 -0.362,13.01277 0.63693,2.99956 2.7225,7.27217 4.23961,8.685475 2.36057,2.19909 4.47734,2.47356 7.46348,0.96774 z m 22.28119,-29.969245 c 5.98507,-0.86494 10.62787,-3.94029 12.56719,-8.32442 1.47487,-3.33422 1.67971,-9.98258 0.43391,-14.08412 -3.26986,-10.76525 -17.43716,-14.84623 -25.23814,-7.27001 -1.94512,1.88907 -4.05387,6.15898 -4.80515,9.7297 -0.78728,3.74181 0.082,3.5501 1.51081,-0.33315 1.06855,-2.90434 4.50335,-6.67704 7.50946,-8.24817 3.22364,-1.68484 8.44186,-1.78718 11.39681,-0.22348 4.60085,2.43464 6.46607,6.62162 6.19631,13.9092 -0.15447,4.17425 -0.3391,5.05618 -1.4577,6.96493 -2.65984,4.53868 -6.96095,6.97094 -12.29302,6.95164 -4.70223,-0.0177 -8.6629,-2.33853 -10.67919,-6.25953 -1.41271,-2.74728 -1.57298,-1.69439 -0.18777,1.23367 1.39389,2.94646 3.78368,4.86387 7.21244,5.78679 2.74725,0.73949 3.72777,0.76039 7.83404,0.1669 z m -39.83213,-1.54525 c 2.51056,-1.2722 5.51314,-4.34661 5.95354,-6.09599 0.20846,-0.82806 0.0627,-0.75395 -0.75104,0.38191 -5.44403,7.59861 -14.4408,8.43672 -20.78905,1.93665 -3.74222,-3.83172 -4.91835,-9.2149 -3.24466,-14.85084 2.23506,-7.52623 8.29722,-11.1741 15.64155,-9.41224 5.60786,1.34531 10.20167,8.38701 10.42794,15.98466 l 0.0628,2.11392 0.43735,-2.11392 c 0.24054,-1.16267 0.31126,-3.48799 0.15713,-5.16738 -0.63404,-6.90989 -2.71861,-10.82856 -6.91738,-13.00357 -2.19514,-1.1371 -2.99562,-1.2823 -7.17814,-1.30199 -4.3987,-0.0208 -4.91404,0.0795 -7.85621,1.52796 -3.50536,1.72567 -5.78092,4.12618 -7.45127,7.86045 -1.2314,2.75291 -1.78533,10.98523 -0.94831,14.09364 1.12971,4.19543 5.06765,7.69561 10.10405,8.98078 3.77124,0.96237 9.4578,0.53233 12.35152,-0.93404 z m 1.94173,-4.55171 c 1.99058,-1.21363 2.90775,-3.44233 2.90775,-7.06574 0,-4.74707 -2.14964,-7.82853 -6.22714,-8.92649 -5.26885,-1.41875 -9.43642,3.22119 -7.9351,8.83452 1.176,4.39693 4.86223,8.11089 8.04695,8.10751 0.9089,-9.7e-4 2.35231,-0.42838 3.20754,-0.9498 z m -4.04471,-10.88642 c -0.31005,-0.31005 -0.56371,-1.15159 -0.56371,-1.87011 0,-1.53073 1.63422,-2.20953 3.24457,-1.34769 1.82509,0.97676 0.98649,3.78151 -1.13066,3.78151 -0.54256,0 -1.24017,-0.25368 -1.5502,-0.56371 z m 38.50739,9.81955 c 3.74555,-2.85321 5.89338,-8.76407 4.44457,-12.23157 -1.89752,-4.54138 -9.6148,-3.86395 -12.76114,1.12018 -2.73933,4.33937 -2.55015,8.52321 0.50674,11.2072 2.3519,2.065 5.01614,2.03231 7.80983,-0.0959 z m -2.33578,-9.81955 c -0.91978,-0.91981 -0.64666,-2.17885 0.65814,-3.03379 2.1286,-1.39471 3.98053,0.80251 2.26973,2.69293 -0.93221,1.03008 -2.10239,1.16631 -2.92787,0.34086 z m 14.67688,-25.24372 c 0.70348,-0.77734 0.74411,-1.15092 0.27854,-2.5616 -0.66783,-2.02355 -4.9891,-6.50471 -7.51552,-7.79358 -3.89129,-1.98519 -10.31469,-0.87813 -13.7243,2.36534 -1.52737,1.45298 -1.81583,1.99221 -1.53934,2.87771 0.67964,2.17668 2.0622,2.31059 5.46826,0.52961 2.79889,-1.46351 5.95448,-1.65792 8.13356,-0.50111 0.7751,0.41148 2.60171,1.9284 4.05911,3.37092 2.87756,2.84818 3.58541,3.09868 4.83969,1.71271 z m -61.7114,-1.72012 c 1.70831,-1.83138 5.16576,-3.40495 8.88128,-4.0421 2.9612,-0.50778 3.55683,-0.47549 5.53885,0.30029 2.84472,1.11347 4.64015,1.22231 4.37294,0.26511 -0.10812,-0.38755 -0.17868,-1.23312 -0.15659,-1.87905 0.0497,-1.45937 -0.98173,-2.64092 -3.36934,-3.85948 -2.27907,-1.16315 -5.86701,-0.88103 -10.82506,0.85122 -6.8935,2.40843 -9.66981,5.88707 -7.18114,8.99772 0.71253,0.89061 1.48366,0.71221 2.73911,-0.63371 z"
       id="path4" /></g></svg>
