<?xml version="1.0" encoding="UTF-8" standalone="no"?>
<!-- Created with Inkscape (http://www.inkscape.org/) -->

<svg
   width="66.290009mm"
   height="62.396725mm"
   viewBox="0 0 66.290009 62.396725"
   version="1.1"
   id="svg1"
   xml:space="preserve"
   xmlns="http://www.w3.org/2000/svg"
   xmlns:svg="http://www.w3.org/2000/svg"><defs
     id="defs1" /><g
     id="layer3"
     style="display:inline"
     transform="translate(-288.57878,143.3545)"><path
       style="display:inline;fill:#000000;fill-opacity:1;stroke:#000000;stroke-width:1.65471;stroke-opacity:1"
       d="m 316.36625,-82.554528 c -3.11515,-1.02923 -5.909,-3.02636 -8.26889,-5.91085 -2.51848,-3.078361 -2.89488,-3.979661 -2.2023,-5.273761 0.61204,-1.1436 2.11379,-1.99172 2.9908,-1.68907 0.30743,0.10606 0.93345,0.92696 1.39116,1.82416 0.93175,1.82637 3.6027,4.403081 5.79481,5.590371 2.17616,1.17865 7.79493,1.08622 10.54137,-0.1734 2.72989,-1.25203 5.88394,-4.534761 7.72507,-8.040211 1.7714,-3.37269 2.56025,-4.342501 3.53221,-4.342501 0.95789,0 2.63532,1.804841 2.63532,2.835491 0,1.46927 -4.0758,7.84741 -6.62287,10.364051 -5.01958,4.9596 -11.60313,6.76955 -17.51668,4.81572 z m -20.298,-20.130522 c -2.43654,-1.1602 -3.50285,-2.48162 -4.56693,-5.65952 -1.36099,-4.06461 -1.64373,-8.6899 -0.70639,-11.55568 1.01716,-3.10979 2.08463,-4.51039 4.53577,-5.95127 1.71597,-1.00873 2.55681,-1.20567 5.14762,-1.20567 2.6585,0 3.35866,0.17341 4.94874,1.22567 3.80252,2.51638 6.06581,8.65428 4.89934,13.28672 -0.93033,3.6947 -4.23514,8.36607 -6.87882,9.72325 -1.87811,0.96416 -5.50044,1.03116 -7.37933,0.13651 z m 10.58863,-14.15996 c 1.89223,-1.77765 0.89181,-6.05301 -1.41639,-6.05301 -1.05359,0 -3.12571,1.20286 -3.42767,1.98976 -0.61139,1.59327 -0.26536,3.20558 0.8816,4.10779 1.47895,1.16333 2.69125,1.14971 3.96246,-0.0445 z m 43.37126,9.67303 c -0.42141,-0.24544 -0.76618,-0.69513 -0.76618,-0.9993 0,-0.83973 -2.20738,-2.77567 -4.03566,-3.5394 -2.39476,-1.00034 -5.46657,-0.84913 -8.5979,0.42324 -2.10432,0.85507 -2.90904,0.99931 -3.57796,0.64132 -1.31984,-0.70637 -1.0257,-2.21432 0.81933,-4.20038 1.27454,-1.37197 2.22286,-1.93148 3.99376,-2.35631 4.19369,-1.00604 9.91935,0.0776 13.0578,2.47148 2.43553,1.85765 3.95246,6.18556 2.63115,7.50686 -0.63635,0.63634 -2.47493,0.66372 -3.52434,0.0525 z m -22.98495,-6.19078 c -1.00378,-0.4841 -1.32982,-1.82776 -0.55911,-2.3041 0.23429,-0.14478 1.21758,-1.88028 2.18511,-3.85666 2.38797,-4.87795 5.1271,-8.26921 7.67543,-9.50284 1.79922,-0.87098 2.4517,-0.9554 5.40226,-0.69892 4.40444,0.38287 5.96246,0.91924 6.57497,2.26354 1.38087,3.03072 0.32954,3.71211 -5.21697,3.3812 l -4.13781,-0.24686 -1.67218,1.69976 c -0.91969,0.93488 -3.146,3.52215 -4.94733,5.7495 -1.80135,2.22734 -3.5101,4.03638 -3.79725,4.02008 -0.28712,-0.0165 -0.96534,-0.2434 -1.50712,-0.5047 z m -37.14242,-21.57179 c -2.27479,-3.47176 3.52122,-7.88194 9.95839,-7.57731 l 2.77622,0.13138 0.27351,1.97013 c 0.15273,1.10042 0.0807,2.21174 -0.16299,2.51741 -0.24505,0.3072 -1.42128,0.55147 -2.68144,0.55688 -2.38128,0.01 -5.05997,1.01892 -6.79941,2.56048 -1.38804,1.23012 -2.48809,1.17815 -3.36419,-0.15902 z"
       id="path2" /></g></svg>
